<svg width="121" height="22" viewBox="0 0 121 22" fill="none" xmlns="http://www.w3.org/2000/svg">
<path d="M38.93 17H41.57L41.9 12.17C41.96 11.36 41.9 10.37 41.9 10.37H41.93C41.93 10.37 42.29 11.495 42.53 12.17L43.655 15.275H45.905L47.03 12.17C47.27 11.495 47.63 10.37 47.63 10.37H47.66C47.66 10.37 47.6 11.36 47.66 12.17L47.99 17H50.615L49.745 6.275H46.895L45.335 10.805C45.095 11.495 44.795 12.575 44.795 12.575H44.765C44.765 12.575 44.465 11.495 44.225 10.805L42.665 6.275H39.815L38.93 17ZM52.8098 17H59.7398V14.75H55.4348V12.725H58.7048V10.475H55.4348V8.525H59.5298V6.275H52.8098V17ZM63.6832 17H66.3082V8.525H69.5632V6.275H60.4282V8.525H63.6832V17ZM70.886 17H73.511V13.385H74.741L76.646 17H79.571L77.486 13.25C77.231 12.8 77.081 12.605 77.081 12.605V12.575C78.146 12.035 78.686 10.79 78.686 9.65C78.686 8.09 77.921 6.995 76.706 6.53C76.241 6.35 75.716 6.275 74.621 6.275H70.886V17ZM73.511 11.135V8.525H74.396C75.716 8.525 76.016 9.005 76.016 9.815C76.016 10.67 75.491 11.135 74.651 11.135H73.511ZM80.3463 11.57C80.3463 14.72 82.7163 17.18 85.9563 17.18C89.1963 17.18 91.5663 14.72 91.5663 11.57C91.5663 8.495 89.1963 6.095 85.9563 6.095C82.7163 6.095 80.3463 8.495 80.3463 11.57ZM83.0613 11.57C83.0613 9.815 84.3513 8.495 85.9563 8.495C87.5613 8.495 88.8513 9.815 88.8513 11.57C88.8513 13.4 87.5613 14.78 85.9563 14.78C84.3513 14.78 83.0613 13.4 83.0613 11.57ZM93.3567 17H95.9817V12.005C95.9817 11.33 95.8617 10.175 95.8617 10.175H95.8917C95.8917 10.175 96.3717 11.3 96.7917 12.005L99.7767 17H102.417V6.275H99.7917V11.285C99.7917 11.96 99.9117 13.115 99.9117 13.115H99.8817C99.8817 13.115 99.4017 11.99 98.9817 11.285L96.0117 6.275H93.3567V17ZM104.944 17H107.569V6.275H104.944V17ZM109.35 11.615C109.35 14.795 111.615 17.18 114.975 17.18C117.78 17.18 119.295 15.38 119.295 15.38L117.945 13.46C117.945 13.46 116.715 14.78 115.095 14.78C113.115 14.78 112.065 13.145 112.065 11.555C112.065 10.01 113.04 8.495 115.095 8.495C116.58 8.495 117.78 9.59 117.78 9.59L118.995 7.61C118.995 7.61 117.63 6.095 114.975 6.095C111.75 6.095 109.35 8.495 109.35 11.615Z" fill="#ffffff"/>
<path d="M25.3479 2.07227L30.9247 19.2221C31.345 20.5144 30.3817 21.8406 29.0227 21.8406H25.4501C24.143 21.8406 22.9864 20.9943 22.5908 19.7485L17.313 3.12631C16.8216 1.57872 17.9767 0 19.6004 0H22.4949C23.7943 0 24.946 0.836549 25.3479 2.07227Z" fill="#3E97FF"/>
<path d="M18.4587 14.5335L14.4003 1.53388C14.1154 0.621383 13.2705 0 12.3145 0C11.3837 0 10.6161 0.729443 10.5688 1.65907L10.0858 11.1365C10.0394 12.0484 10.1494 12.9616 10.4111 13.8364L12.3787 20.4138C12.6319 21.2605 13.411 21.8406 14.2948 21.8406H15.8077C16.6782 21.8406 17.4488 21.2775 17.7132 20.4481L18.4478 18.1442C18.8221 16.9703 18.8259 15.7096 18.4587 14.5335Z" fill="#D9DEE4"/>
<path d="M18.4587 14.5335L14.4003 1.53388C14.1154 0.621383 13.2705 0 12.3145 0C11.3837 0 10.6161 0.729443 10.5688 1.65907L10.0858 11.1365C10.0394 12.0484 10.1494 12.9616 10.4111 13.8364L12.3787 20.4138C12.6319 21.2605 13.411 21.8406 14.2948 21.8406H15.8077C16.6782 21.8406 17.4488 21.2775 17.7132 20.4481L18.4478 18.1442C18.8221 16.9703 18.8259 15.7096 18.4587 14.5335Z" stroke="D9DEE4"/>
<path d="M9.14022 0H12.2457C13.864 0 15.0184 1.56893 14.537 3.11397L9.30894 19.8925C8.91832 21.1461 7.75783 22 6.44476 22H2.91161C1.56815 22 0.606751 20.7018 0.998558 19.4167L6.27064 2.12509C6.65556 0.862609 7.82037 0 9.14022 0Z" fill="#3E97FF"/>
</svg>
